<svg width="1024" height="1024" viewBox="0 0 1024 1024" fill="none" xmlns="http://www.w3.org/2000/svg">
  <!-- Background -->
  <rect width="1024" height="1024" rx="200" fill="#0f172a"/>
  
  <!-- Dreamcatcher -->
  <g transform="translate(512, 512)">
    <!-- Outer circle -->
    <circle cx="0" cy="0" r="350" fill="none" stroke="#22c55e" stroke-width="12"/>
    
    <!-- Web pattern -->
    <circle cx="0" cy="0" r="280" fill="none" stroke="#22c55e" stroke-width="4"/>
    <circle cx="0" cy="0" r="210" fill="none" stroke="#22c55e" stroke-width="4"/>
    <circle cx="0" cy="0" r="140" fill="none" stroke="#22c55e" stroke-width="4"/>
    <circle cx="0" cy="0" r="70" fill="none" stroke="#22c55e" stroke-width="4"/>
    
    <!-- Web spokes -->
    <line x1="0" y1="-350" x2="0" y2="350" stroke="#22c55e" stroke-width="4"/>
    <line x1="-350" y1="0" x2="350" y2="0" stroke="#22c55e" stroke-width="4"/>
    <line x1="-247" y1="-247" x2="247" y2="247" stroke="#22c55e" stroke-width="4"/>
    <line x1="247" y1="-247" x2="-247" y2="247" stroke="#22c55e" stroke-width="4"/>
    
    <!-- AI Box -->
    <rect x="-60" y="-60" width="120" height="120" rx="20" fill="#22c55e" stroke="#22c55e" stroke-width="6"/>
    <text x="0" y="0" font-family="Arial, sans-serif" font-size="56" font-weight="bold" fill="white" text-anchor="middle" dominant-baseline="middle">AI</text>
    
    <!-- Feathers -->
    <ellipse cx="0" cy="250" rx="8" ry="60" fill="#22c55e"/>
    <ellipse cx="-20" cy="260" rx="8" ry="50" fill="#22c55e"/>
    <ellipse cx="20" cy="260" rx="8" ry="50" fill="#22c55e"/>
    
    <!-- Beads -->
    <circle cx="0" cy="210" r="6" fill="#22c55e"/>
    <circle cx="-20" cy="220" r="5" fill="#22c55e"/>
    <circle cx="20" cy="220" r="5" fill="#22c55e"/>
  </g>
</svg>
