<svg width="1024" height="1024" viewBox="0 0 1024 1024" fill="none" xmlns="http://www.w3.org/2000/svg">
  <!-- Background circle -->
  <circle cx="512" cy="512" r="480" fill="#E8D5F2" stroke="#1E3A8A" stroke-width="8"/>
  
  <!-- Dreamcatcher outer ring -->
  <circle cx="512" cy="512" r="400" fill="none" stroke="#1E3A8A" stroke-width="12"/>
  
  <!-- Dreamcatcher web pattern -->
  <circle cx="512" cy="512" r="300" fill="none" stroke="#1E3A8A" stroke-width="4"/>
  <circle cx="512" cy="512" r="200" fill="none" stroke="#1E3A8A" stroke-width="4"/>
  <circle cx="512" cy="512" r="100" fill="none" stroke="#1E3A8A" stroke-width="4"/>
  
  <!-- Web spokes -->
  <line x1="512" y1="112" x2="512" y2="912" stroke="#1E3A8A" stroke-width="4"/>
  <line x1="112" y1="512" x2="912" y2="512" stroke="#1E3A8A" stroke-width="4"/>
  <line x1="212" y1="212" x2="812" y2="812" stroke="#1E3A8A" stroke-width="4"/>
  <line x1="812" y1="212" x2="212" y2="812" stroke="#1E3A8A" stroke-width="4"/>
  
  <!-- AI Box -->
  <rect x="462" y="462" width="100" height="100" rx="20" fill="#1E3A8A" stroke="#1E3A8A" stroke-width="6"/>
  <text x="512" y="520" font-family="Arial, sans-serif" font-size="48" font-weight="bold" fill="white" text-anchor="middle" dominant-baseline="middle">AI</text>
  
  <!-- Feathers -->
  <ellipse cx="512" cy="650" rx="8" ry="60" fill="#1E3A8A"/>
  <ellipse cx="492" cy="660" rx="8" ry="50" fill="#1E3A8A"/>
  <ellipse cx="532" cy="660" rx="8" ry="50" fill="#1E3A8A"/>
  
  <!-- Beads -->
  <circle cx="512" cy="620" r="6" fill="#1E3A8A"/>
  <circle cx="492" cy="630" r="5" fill="#1E3A8A"/>
  <circle cx="532" cy="630" r="5" fill="#1E3A8A"/>
</svg>
